<svg width="70" height="70" viewBox="0 0 70 70" fill="none" xmlns="http://www.w3.org/2000/svg">
<path opacity="0.2" d="M60.4506 13.2069C59.0089 11.6962 57.2972 10.4978 55.4133 9.68018C53.5294 8.86256 51.5101 8.44172 49.4709 8.44172C47.4316 8.44172 45.3839 7.11553 43.5 7.93316C41.6161 8.75078 39.9416 8.45657 38.5 9.96727L35 11.4927L32.5 9.96713C29.588 6.91705 25.6458 8.44331 21.5276 8.44331C17.4095 8.44331 13.4599 10.1568 10.5479 13.2069C7.63594 16.257 6 20.3938 6 24.7073C6 29.0207 7.088 33.8673 10 36.9173L12.5 39.9683L35.4992 62.3421L58.5 39.9683L61 36.9173C62.4423 35.4073 63.037 32.9048 63.8176 30.9315C64.5982 28.9582 65 26.8432 65 24.7073C65 22.5713 64.5982 20.4563 63.8176 18.483C63.037 16.5097 61.8929 14.7169 60.4506 13.2069Z" fill="#726DAD"/>
<path d="M47.9785 6C58.7481 6 67.4785 14.7304 67.4785 25.5C67.4785 36.2696 58.7481 45 47.9785 45L46.9785 43C56.0912 43 63.4785 35.165 63.4785 25.5C63.4785 15.835 56.0912 8 46.9785 8L47.9785 6ZM27.4785 44L27.4785 7L27.4785 44ZM27.4785 25.5C27.4785 14.7304 36.209 6 46.9785 6L47.9785 6C58.7481 6 67.4785 14.7304 67.4785 25.5L63.4785 25.5C63.4785 15.835 56.0912 8 46.9785 8L45.9785 8C35.7612 8 27.4785 15.835 27.4785 25.5ZM67.4785 25.5C67.4785 36.2696 58.7481 45 47.9785 45L46.9785 45C36.209 45 27.4785 36.2696 27.4785 25.5C27.4785 35.165 35.7612 43 45.9785 43L46.9785 43C56.0912 43 63.4785 35.165 63.4785 25.5L67.4785 25.5Z" fill="#726DAD"/>
<path d="M22.5 45C11.7304 45 3 36.2696 3 25.5C3 14.7304 11.7304 6 22.5 6L23.5 8C14.3873 8 7 15.835 7 25.5C7 35.165 14.3873 43 23.5 43L22.5 45ZM43 7L43 44L43 7ZM43 25.5C43 36.2696 34.2696 45 23.5 45L22.5 45C11.7304 45 3 36.2696 3 25.5L7 25.5C7 35.165 14.3873 43 23.5 43L24.5 43C34.7173 43 43 35.165 43 25.5ZM3 25.5C3 14.7304 11.7304 6 22.5 6L23.5 6C34.2696 6 43 14.7304 43 25.5C43 15.835 34.7173 8 24.5 8L23.5 8C14.3873 8 7 15.835 7 25.5L3 25.5Z" fill="#726DAD"/>
</svg>
